<?xml version="1.0" encoding="iso-8859-1"?>
<!-- Generator: Adobe Illustrator 16.0.0, SVG Export Plug-In . SVG Version: 6.00 Build 0)  -->
<!DOCTYPE svg PUBLIC "-//W3C//DTD SVG 1.1//EN" "http://www.w3.org/Graphics/SVG/1.1/DTD/svg11.dtd">
<svg version="1.1" id="Capa_1" xmlns="http://www.w3.org/2000/svg" xmlns:xlink="http://www.w3.org/1999/xlink" x="0px" y="0px"
	 width="485.215px" height="485.215px" viewBox="0 0 485.215 485.215" style="enable-background:new 0 0 485.215 485.215;"
	 xml:space="preserve">
<g>
	<path d="M242.606,0.001C108.598,0.001,0,108.63,0,242.607c0,133.976,108.598,242.606,242.606,242.606
		c133.978,0,242.608-108.631,242.608-242.606C485.215,108.63,376.584,0.001,242.606,0.001z M257.77,212.283h-30.327V90.979h30.327
		V212.283z M363.908,242.607c0,66.934-54.404,121.3-121.302,121.3c-66.9,0-121.305-54.366-121.305-121.3
		c0-50.698,31.512-93.643,75.814-111.708v33.528c-27.095,15.753-45.488,44.657-45.488,78.18c0,50.169,40.811,90.979,90.978,90.979
		c50.171,0,90.976-40.81,90.976-90.979c0-33.465-18.422-62.427-45.486-78.18v-33.528C332.4,148.965,363.908,191.909,363.908,242.607
		z"/>
</g>
<g>
</g>
<g>
</g>
<g>
</g>
<g>
</g>
<g>
</g>
<g>
</g>
<g>
</g>
<g>
</g>
<g>
</g>
<g>
</g>
<g>
</g>
<g>
</g>
<g>
</g>
<g>
</g>
<g>
</g>
</svg>
